<svg width="48" height="48" viewBox="0 0 48 48" fill="none" xmlns="http://www.w3.org/2000/svg">
<rect width="48" height="48" rx="12" fill="url(#paint0_linear_2622_29371)"/>
<g clip-path="url(#clip0_2622_29371)">
<mask id="mask0_2622_29371" style="mask-type:alpha" maskUnits="userSpaceOnUse" x="4" y="4" width="41" height="41">
<path fill-rule="evenodd" clip-rule="evenodd" d="M45 4H4V45H45V4ZM24 10C31.732 10 38 16.268 38 24C38 26.8281 37.1586 29.4649 35.7152 31.6671L36.3346 32.6993C36.9833 33.7805 37.0003 35.1272 36.379 36.2244C35.7578 37.3217 34.5943 38 33.3333 38H24C16.268 38 10 31.732 10 24C10 16.268 16.268 10 24 10Z" fill="#D9D9D9"/>
</mask>
<g mask="url(#mask0_2622_29371)">
<path d="M1 1L49 49" stroke="white" stroke-opacity="0.2" stroke-width="0.5"/>
<path d="M1 49L49 1" stroke="white" stroke-opacity="0.2" stroke-width="0.5"/>
<path d="M10 1V49" stroke="white" stroke-opacity="0.1" stroke-width="0.5"/>
<path d="M16 1V49" stroke="white" stroke-opacity="0.1" stroke-width="0.5"/>
<path d="M22 1V49" stroke="white" stroke-opacity="0.1" stroke-width="0.5"/>
<path d="M28 1V49" stroke="white" stroke-opacity="0.1" stroke-width="0.5"/>
<path d="M34 1V49" stroke="white" stroke-opacity="0.1" stroke-width="0.5"/>
<path d="M40 1V49" stroke="white" stroke-opacity="0.1" stroke-width="0.5"/>
<path d="M0 10H48" stroke="white" stroke-opacity="0.1" stroke-width="0.5"/>
<path d="M0 16H48" stroke="white" stroke-opacity="0.1" stroke-width="0.5"/>
<path d="M0 22H48" stroke="white" stroke-opacity="0.1" stroke-width="0.5"/>
<path d="M0 28H48" stroke="white" stroke-opacity="0.1" stroke-width="0.5"/>
<path d="M0 34H48" stroke="white" stroke-opacity="0.1" stroke-width="0.5"/>
<path d="M0 40H48" stroke="white" stroke-opacity="0.1" stroke-width="0.5"/>
</g>
</g>
<path d="M29.6 3.5H18.4H18.3766C15.8761 3.5 13.9692 3.5 12.4481 3.62428C10.9164 3.74942 9.73193 4.00307 8.68709 4.53544C6.89955 5.44624 5.44624 6.89955 4.53544 8.68709C4.00307 9.73193 3.74942 10.9164 3.62428 12.4481C3.5 13.9692 3.5 15.8761 3.5 18.3766V18.4V29.6V29.6234C3.5 32.1239 3.5 34.0308 3.62428 35.5519C3.74942 37.0836 4.00307 38.2681 4.53544 39.3129C5.44624 41.1004 6.89955 42.5538 8.68709 43.4646C9.73193 43.9969 10.9164 44.2506 12.4481 44.3757C13.9692 44.5 15.8761 44.5 18.3766 44.5H18.4H29.6H29.6234C32.1239 44.5 34.0308 44.5 35.5519 44.3757C37.0836 44.2506 38.2681 43.9969 39.3129 43.4646C41.1004 42.5538 42.5538 41.1004 43.4646 39.3129C43.9969 38.2681 44.2506 37.0836 44.3757 35.5519C44.5 34.0308 44.5 32.1239 44.5 29.6234V29.6V18.4V18.3766C44.5 15.8761 44.5 13.9692 44.3757 12.4481C44.2506 10.9164 43.9969 9.73193 43.4646 8.68709C42.5538 6.89955 41.1004 5.44624 39.3129 4.53544C38.2681 4.00307 37.0836 3.74942 35.5519 3.62428C34.0308 3.5 32.1239 3.5 29.6234 3.5H29.6Z" stroke="white"/>
<path d="M35.4651 31.8171C35.4076 31.7212 35.41 31.6008 35.4713 31.5072C36.8845 29.3509 37.7083 26.7695 37.7083 24C37.7083 16.4291 31.5709 10.2917 24 10.2917C16.4291 10.2917 10.2917 16.4291 10.2917 24C10.2917 31.5709 16.4291 37.7083 24 37.7083H33.3333C34.4892 37.7083 35.5557 37.0866 36.1252 36.0807C36.6947 35.0749 36.6791 33.8405 36.0845 32.8493L35.4651 31.8171Z" stroke="white" stroke-opacity="0.4" stroke-width="0.583333" stroke-linejoin="round"/>
<path fill-rule="evenodd" clip-rule="evenodd" d="M24.0001 14.6668C29.1547 14.6668 33.3334 18.8455 33.3334 24.0002C33.3334 26.5599 32.3045 28.8771 30.635 30.5644C30.2601 30.9433 30.1896 31.5281 30.4639 31.9852L31.2729 33.3335H24.0001C18.8454 33.3335 14.6667 29.1548 14.6667 24.0002C14.6667 18.8455 18.8454 14.6668 24.0001 14.6668ZM35.6667 24.0002C35.6667 17.5568 30.4434 12.3335 24.0001 12.3335C17.5568 12.3335 12.3334 17.5568 12.3334 24.0002C12.3334 30.4435 17.5568 35.6668 24.0001 35.6668H33.3334C33.7537 35.6668 34.1416 35.4407 34.3486 35.075C34.5557 34.7092 34.5501 34.2603 34.3338 33.8999L32.9118 31.5299C34.6297 29.4985 35.6667 26.8695 35.6667 24.0002Z" fill="white"/>
<path fill-rule="evenodd" clip-rule="evenodd" d="M23.9998 14.6668C29.1545 14.6668 33.3332 18.8455 33.3332 24.0002C33.3332 26.5599 32.3043 28.8771 30.6347 30.5644C30.2598 30.9433 30.1894 31.5281 30.4636 31.9852L31.2726 33.3335H23.9998C18.8452 33.3335 14.6665 29.1548 14.6665 24.0002C14.6665 18.8455 18.8452 14.6668 23.9998 14.6668ZM35.6665 24.0002C35.6665 17.5568 30.4432 12.3335 23.9998 12.3335C17.5565 12.3335 12.3332 17.5568 12.3332 24.0002C12.3332 30.4435 17.5565 35.6668 23.9998 35.6668H33.3332C33.7535 35.6668 34.1413 35.4407 34.3484 35.075C34.5555 34.7092 34.5498 34.2603 34.3336 33.8999L32.9116 31.5299C34.6294 29.4985 35.6665 26.8695 35.6665 24.0002Z" fill="white"/>
<defs>
<linearGradient id="paint0_linear_2622_29371" x1="24" y1="0" x2="24" y2="48" gradientUnits="userSpaceOnUse">
<stop stop-color="#0285FF"/>
<stop offset="1" stop-color="#0073DE"/>
</linearGradient>
<clipPath id="clip0_2622_29371">
<path d="M4 18.4C4 13.3595 4 10.8393 4.98094 8.91409C5.8438 7.22063 7.22063 5.8438 8.91409 4.98094C10.8393 4 13.3595 4 18.4 4H29.6C34.6405 4 37.1607 4 39.0859 4.98094C40.7794 5.8438 42.1562 7.22063 43.0191 8.91409C44 10.8393 44 13.3595 44 18.4V29.6C44 34.6405 44 37.1607 43.0191 39.0859C42.1562 40.7794 40.7794 42.1562 39.0859 43.0191C37.1607 44 34.6405 44 29.6 44H18.4C13.3595 44 10.8393 44 8.91409 43.0191C7.22063 42.1562 5.8438 40.7794 4.98094 39.0859C4 37.1607 4 34.6405 4 29.6V18.4Z" fill="white"/>
</clipPath>
</defs>
</svg>
